<svg xmlns="http://www.w3.org/2000/svg"  viewBox="0 0 48 48" width="48px" height="48px"><circle cx="24" cy="24" r="18.5" fill="#f55376"/><path fill="#eb0000" d="M24,4C12.972,4,4,12.972,4,24s8.972,20,20,20s20-8.972,20-20S35.028,4,24,4z M29.164,23.456 c-0.508-1.244-1.058-2.474-1.647-3.691c3.571-1.594,6.891-3.659,9.905-6.159c2.219,2.859,3.557,6.433,3.574,10.32 C37.16,22.897,33.122,22.737,29.164,23.456z M35.379,11.406c-2.811,2.312-5.909,4.215-9.236,5.683 c-1.822-3.361-3.94-6.557-6.323-9.548C21.16,7.201,22.556,7,24,7C28.378,7,32.362,8.678,35.379,11.406z M16.829,8.608 c2.461,2.985,4.638,6.201,6.501,9.59c-5.09,1.805-10.453,2.556-15.938,2.199C8.528,15.159,12.086,10.827,16.829,8.608z M7,24 c0-0.208,0.024-0.41,0.031-0.616C8.026,23.453,9.019,23.5,10,23.5c5.057,0,10.003-0.885,14.729-2.612 c0.526,1.078,1.017,2.168,1.478,3.27c-6.107,1.839-11.376,5.801-14.856,11.16C8.655,32.308,7,28.349,7,24z M13.574,37.399 c3.131-5.065,8.036-8.795,13.737-10.446c1.491,4.129,2.536,8.415,3.118,12.775C28.444,40.543,26.275,41,24,41 C20.07,41,16.457,39.647,13.574,37.399z M33.253,38.242c-0.614-4.07-1.615-8.073-2.988-11.946c3.515-0.552,7.08-0.308,10.457,0.677 C39.887,31.682,37.116,35.723,33.253,38.242z"/></svg>