<svg xmlns="http://www.w3.org/2000/svg"  viewBox="0 0 48 48" width="48px" height="48px"><circle cx="24" cy="24" r="20" fill="#f55376"/><path fill="#fac8d5" d="M21.81,33.111c0.812,1.146,2.557,2.297,4.584,2.297c6.032,0,10.378-5.547,10.378-12.44 c0-6.607-5.392-11.551-12.33-11.551c-8.631,0-13.215,5.794-13.215,12.103c0,2.933,1.562,6.585,4.06,7.748 c0.379,0.176,0.582,0.099,0.669-0.267c0.066-0.278,0.404-1.636,0.555-2.268c0.049-0.202,0.025-0.376-0.139-0.574 c-0.826-1.002-1.488-2.845-1.488-4.564c0-4.411,3.34-8.679,9.031-8.679c4.913,0,8.354,3.348,8.354,8.137 c0,5.41-2.732,9.158-6.287,9.158c-1.963,0-3.433-1.623-2.962-3.614c0.564-2.378,1.656-4.943,1.656-6.659 c0-1.536-0.824-2.817-2.53-2.817c-2.007,0-3.619,2.076-3.619,4.857c0,1.528,0.661,3.346,1.403,5.08 C20.672,30.791,21.234,32.298,21.81,33.111z"/><path fill="#fac8d5" d="M18.078,43.108c0.815-1.328,2.034-3.506,2.486-5.243c0.243-0.936,1.246-4.754,1.246-4.754 c0.74-2.525,0.74-2.525,1.211-4.515c0.564-2.378,1.656-4.943,1.656-6.659c0-1.536-0.824-2.817-2.53-2.817 c-2.007,0-3.619,2.076-3.619,4.857c0,1.771,0.598,2.969,0.598,2.969s-1.982,8.38-2.345,9.941c-0.402,1.727-0.244,4.16-0.069,5.743"/><path fill="#fff" d="M24.677,21.936c0-1.536-0.824-2.817-2.531-2.817c-2.007,0-3.619,2.076-3.619,4.857 c0,0.885,0.226,1.869,0.556,2.876c0.024,0.055,0.042,0.093,0.042,0.093s-0.004,0.018-0.005,0.021 c0.233,0.694,0.514,1.398,0.809,2.09c0.742,1.734,1.304,3.241,1.88,4.054c0.74-2.525,0.74-2.525,1.211-4.515 C23.585,26.218,24.677,23.652,24.677,21.936z"/></svg>